Coordinates
version=1
nRows=16
nColumns=40
inDegrees=yes

Units are S.I. units (second, meters, Newtons, ...)
Angles are in degrees.

endheader
time	pelvis_tilt	pelvis_list	pelvis_rotation	pelvis_tx	pelvis_ty	pelvis_tz	hip_flexion_r	hip_adduction_r	hip_rotation_r	knee_angle_r	knee_angle_r_beta	ankle_angle_r	subtalar_angle_r	mtp_angle_r	hip_flexion_l	hip_adduction_l	hip_rotation_l	knee_angle_l	knee_angle_l_beta	ankle_angle_l	subtalar_angle_l	mtp_angle_l	lumbar_extension	lumbar_bending	lumbar_rotation	arm_flex_r	arm_add_r	arm_rot_r	elbow_flex_r	pro_sup_r	wrist_flex_r	wrist_dev_r	arm_flex_l	arm_add_l	arm_rot_l	elbow_flex_l	pro_sup_l	wrist_flex_l	wrist_dev_l
     30.99000000	      4.27391109	     11.51547095	     80.26136530	      0.55416920	      1.02466299	     -0.95439598	    -16.02203981	      1.16600431	      6.71832293	      0.35979273	      0.00627957	      7.25369925	      0.00000000	      0.00000000	    -18.23150550	     -3.13843706	    -17.14432671	      0.51008263	      0.00890262	     10.24669006	      0.00000000	      0.00000000	    -23.58031881	      1.14297954	      3.27763920	    -21.73168051	    -33.82641572	    -58.27013052	    101.72656395	     88.58889459	      0.00000000	      0.00000000	    -30.89677834	    -28.04543261	    -71.24631914	     86.75949408	     88.70783234	      0.00000000	      0.00000000
     31.00000000	      4.41107200	     11.87251652	     80.22830666	      0.55401670	      1.02496861	     -0.95456218	    -16.45150981	      1.23254502	      6.76728114	      0.34696618	      0.00605570	      7.27444809	      0.00000000	      0.00000000	    -18.67495543	     -3.19979778	    -17.25430827	      0.48672041	      0.00849487	     10.35382649	      0.00000000	      0.00000000	    -23.99063005	      1.23471909	      3.42133258	    -22.30908147	    -32.34775463	    -57.65833923	    102.20899306	     88.43915537	      0.00000000	      0.00000000	    -31.51885818	    -26.52053949	    -70.84098574	     87.87027079	     88.59884097	      0.00000000	      0.00000000
     31.01000000	      4.35895674	     11.93037340	     80.33475220	      0.55381378	      1.02490443	     -0.95486163	    -16.52676666	      1.18438282	      6.55779343	      0.35087401	      0.00612391	      7.21643330	      0.00000000	      0.00000000	    -18.72245879	     -3.15843629	    -17.20210136	      0.48633450	      0.00848814	     10.20333388	      0.00000000	      0.00000000	    -24.00707650	      1.21805551	      3.49484141	    -22.85928141	    -30.75359991	    -57.03156846	    102.66017247	     88.54824839	      0.00000000	      0.00000000	    -31.90859822	    -25.09945006	    -70.20701197	     88.91349064	     88.66013117	      0.00000000	      0.00000000
     31.02000000	      4.37210229	     12.12412840	     80.39455506	      0.55363996	      1.02498029	     -0.95511360	    -16.76457315	      1.16862510	      6.47781456	      0.34559332	      0.00603174	      7.25943149	      0.00000000	      0.00000000	    -18.94333722	     -3.14237323	    -17.17076989	      0.48313756	      0.00843234	     10.26862623	      0.00000000	      0.00000000	    -24.18853769	      1.23381266	      3.59387181	    -23.22227684	    -29.31240978	    -56.22537178	    103.02336662	     88.53880992	      0.00000000	      0.00000000	    -32.21087688	    -23.78121496	    -69.39121244	     89.87335398	     88.64972314	      0.00000000	      0.00000000
     31.03000000	      4.38751263	     12.33795477	     80.48413816	      0.55344661	      1.02512486	     -0.95522425	    -17.02244522	      1.17042989	      6.35072544	      0.33724024	      0.00588595	      7.25948876	      0.00000000	      0.00000000	    -19.17400371	     -3.13891938	    -17.11870128	      0.47455833	      0.00828261	     10.28023726	      0.00000000	      0.00000000	    -24.40872443	      1.25489532	      3.66518854	    -23.45708402	    -27.94689934	    -55.21490995	    103.34553078	     88.50559206	      0.00000000	      0.00000000	    -32.38186188	    -22.56211317	    -68.39916232	     90.82593414	     88.64349953	      0.00000000	      0.00000000
     31.04000000	      4.37494156	     12.49132216	     80.55912955	      0.55330778	      1.02514133	     -0.95529078	    -17.20522235	      1.14591993	      6.30145687	      0.33609168	      0.00586591	      7.39386239	      0.00000000	      0.00000000	    -19.33225660	     -3.11575484	    -17.04037436	      0.47488035	      0.00828823	     10.36661530	      0.00000000	      0.00000000	    -24.55644547	      1.24589202	      3.77608323	    -23.60844679	    -26.65167198	    -54.12283456	    103.60001680	     88.52409223	      0.00000000	      0.00000000	    -32.37584612	    -21.47712699	    -67.21564720	     91.68931476	     88.67183726	      0.00000000	      0.00000000
     31.05000000	      4.37208302	     12.79971451	     80.70653922	      0.55301243	      1.02532819	     -0.95526268	    -17.54708030	      1.12444345	      6.15369486	      0.33459182	      0.00583973	      7.34879757	      0.00000000	      0.00000000	    -19.63824711	     -3.10198249	    -16.90924918	      0.46444621	      0.00810612	     10.29246889	      0.00000000	      0.00000000	    -24.90457479	      1.24158489	      3.78133947	    -23.56499142	    -25.50320762	    -52.93698538	    103.84015663	     88.50823372	      0.00000000	      0.00000000	    -32.30826627	    -20.50444362	    -65.90452839	     92.58483015	     88.63977300	      0.00000000	      0.00000000
     31.06000000	      4.43379745	     13.12981673	     80.80112201	      0.55284645	      1.02554309	     -0.95521621	    -17.92319116	      1.16102333	      6.09116267	      0.33433489	      0.00583524	      7.35811963	      0.00000000	      0.00000000	    -19.99407505	     -3.14657393	    -16.82665944	      0.45928681	      0.00801607	     10.30192082	      0.00000000	      0.00000000	    -25.28906257	      1.26471791	      3.87633127	    -23.47033980	    -24.47342502	    -51.66815632	    104.00714036	     88.51074255	      0.00000000	      0.00000000	    -32.07374163	    -19.67859015	    -64.48528578	     93.45204824	     88.65052220	      0.00000000	      0.00000000
     31.07000000	      4.39939866	     13.40224792	     81.02660253	      0.55256917	      1.02564956	     -0.95507691	    -18.22424707	      1.15157972	      5.80866791	      0.33605570	      0.00586528	      7.43748244	      0.00000000	      0.00000000	    -20.23318074	     -3.14294884	    -16.60122658	      0.46235388	      0.00806960	     10.33413516	      0.00000000	      0.00000000	    -25.59839449	      1.24322141	      3.82316291	    -23.22549826	    -23.50750456	    -50.21408251	    104.09815760	     88.55496321	      0.00000000	      0.00000000	    -31.72835850	    -19.00424183	    -63.00279470	     94.25328016	     88.66918474	      0.00000000	      0.00000000
     31.08000000	      4.37800418	     13.66348667	     81.19773264	      0.55237950	      1.02575024	     -0.95485425	    -18.50851969	      1.14473044	      5.65934168	      0.33466257	      0.00584096	      7.48919992	      0.00000000	      0.00000000	    -20.46789986	     -3.13909732	    -16.44072863	      0.45844992	      0.00800146	     10.32852282	      0.00000000	      0.00000000	    -25.90147675	      1.21801447	      3.81583855	    -22.86536167	    -22.69527331	    -48.62628758	    104.13524958	     88.57777135	      0.00000000	      0.00000000	    -31.25831435	    -18.44662021	    -61.43443157	     95.06081081	     88.68985968	      0.00000000	      0.00000000
     31.09000000	      4.36632121	     13.94513386	     81.34550439	      0.55221685	      1.02590827	     -0.95453218	    -18.81076088	      1.13522863	      5.62109686	      0.33350818	      0.00582082	      7.47808950	      0.00000000	      0.00000000	    -20.72763074	     -3.13088591	    -16.35292968	      0.45062057	      0.00786481	     10.28801277	      0.00000000	      0.00000000	    -26.24797180	      1.18968949	      3.84405667	    -22.41383901	    -22.01238425	    -46.96524095	    104.09499585	     88.59230311	      0.00000000	      0.00000000	    -30.61627502	    -17.99894227	    -59.77929108	     95.84201428	     88.70705688	      0.00000000	      0.00000000
     31.10000000	      4.32620006	     14.27064690	     81.60607070	      0.55199119	      1.02606501	     -0.95423230	    -19.16316723	      1.13362236	      5.37100332	      0.33605320	      0.00586523	      7.51646368	      0.00000000	      0.00000000	    -21.01605159	     -3.13525832	    -16.12993354	      0.44062235	      0.00769031	     10.29645005	      0.00000000	      0.00000000	    -26.63145354	      1.15594148	      3.74446333	    -21.84715696	    -21.38000503	    -45.10771536	    103.95388589	     88.59431187	      0.00000000	      0.00000000	    -29.87856265	    -17.72263726	    -58.06249146	     96.57769065	     88.70559718	      0.00000000	      0.00000000
     31.11000000	      4.26202430	     14.55319018	     81.87615858	      0.55168041	      1.02618489	     -0.95381988	    -19.46048797	      1.11968184	      5.12630532	      0.33486365	      0.00584447	      7.60399415	      0.00000000	      0.00000000	    -21.24170503	     -3.12559833	    -15.87790769	      0.43996988	      0.00767892	     10.28996533	      0.00000000	      0.00000000	    -26.98325461	      1.10720981	      3.61590935	    -21.08651460	    -20.83129141	    -43.18996765	    103.72841460	     88.61149417	      0.00000000	      0.00000000	    -28.96697572	    -17.52080798	    -56.26701246	     97.25275768	     88.72650659	      0.00000000	      0.00000000
     31.12000000	      4.23851010	     14.88004114	     82.07875164	      0.55137435	      1.02637240	     -0.95325825	    -19.79801221	      1.11581931	      4.96769718	      0.33541225	      0.00585405	      7.63907369	      0.00000000	      0.00000000	    -21.52262776	     -3.13076262	    -15.74004400	      0.43753048	      0.00763635	     10.26403041	      0.00000000	      0.00000000	    -27.42536554	      1.07850034	      3.56134145	    -20.19021649	    -20.42584915	    -41.28800602	    103.44273905	     88.63131844	      0.00000000	      0.00000000	    -27.91627670	    -17.41386442	    -54.31748261	     97.85555260	     88.74373816	      0.00000000	      0.00000000
     31.13000000	      4.18006112	     15.16679455	     82.31662252	      0.55115446	      1.02651723	     -0.95265920	    -20.08549836	      1.09540981	      4.79936137	      0.33864511	      0.00591047	      7.65385529	      0.00000000	      0.00000000	    -21.74617320	     -3.12456040	    -15.57257496	      0.43329901	      0.00756249	     10.17715247	      0.00000000	      0.00000000	    -27.83369660	      1.03042697	      3.46810056	    -19.14482083	    -20.05822814	    -39.36426493	    103.06617837	     88.67201331	      0.00000000	      0.00000000	    -26.74104376	    -17.46014936	    -52.24039684	     98.33293650	     88.77791268	      0.00000000	      0.00000000
     31.14000000	      4.13004515	     15.45031941	     82.53132650	      0.55107081	      1.02669305	     -0.95201582	    -20.35908735	      1.09099830	      4.62452097	      0.34375406	      0.00599964	      7.63327536	      0.00000000	      0.00000000	    -21.97640181	     -3.12594474	    -15.42359422	      0.42276941	      0.00737872	     10.08614348	      0.00000000	      0.00000000	    -28.24998932	      0.98915864	      3.39215992	    -17.93685045	    -19.73656249	    -37.43026253	    102.62276014	     88.69664926	      0.00000000	      0.00000000	    -25.45617114	    -17.60153991	    -50.04060629	     98.72808063	     88.79444421	      0.00000000	      0.00000000
